<svg width="120" height="32" viewBox="0 0 120 32" fill="none" xmlns="http://www.w3.org/2000/svg">
<g clip-path="url(#clip0_8_755)">
<g clip-path="url(#clip1_8_755)">
<path d="M0.657471 31.9999H11.5068C16.6514 31.9999 20.8219 27.8294 20.8219 22.6848H9.97254C4.82797 22.6848 0.657471 26.8553 0.657471 31.9999Z" fill="#F22BB2"/>
<path d="M1.14282 9.31507V23.0137C6.28739 23.0137 10.4579 18.8432 10.4579 13.6986V0C5.31332 0 1.14282 4.1705 1.14282 9.31507Z" fill="#8C30F5"/>
<path d="M31.3424 0H20.493C15.3485 0 11.178 4.1705 11.178 9.31507H22.0273C27.1719 9.31507 31.3424 5.14457 31.3424 0Z" fill="#FE9A22"/>
<path d="M31.3424 22.1371V8.43848C26.1978 8.43848 22.0273 12.609 22.0273 17.7535V31.4522C27.1719 31.4522 31.3424 27.2817 31.3424 22.1371Z" fill="#2EC5CE"/>
</g>
<path d="M46.1713 20.48V7.99999H42.5142V24H51.8856V20.48H46.1713Z" fill="white"/>
<path d="M61.5676 12.5714V13.6457C60.8133 12.7771 59.6933 12.2514 58.1618 12.2514C55.1676 12.2514 52.699 14.88 52.699 18.2857C52.699 21.6914 55.1676 24.32 58.1618 24.32C59.6933 24.32 60.8133 23.7943 61.5676 22.9257V24H64.9961V12.5714H61.5676ZM58.8476 21.0743C57.2704 21.0743 56.1276 20 56.1276 18.2857C56.1276 16.5714 57.2704 15.4971 58.8476 15.4971C60.4247 15.4971 61.5676 16.5714 61.5676 18.2857C61.5676 20 60.4247 21.0743 58.8476 21.0743Z" fill="white"/>
<path d="M74.2086 12.2514C72.7001 12.2514 71.5572 12.8 70.9401 13.6457V12.5714H67.5115V24H70.9401V17.76C70.9401 16.1371 71.8086 15.4057 73.0658 15.4057C74.1629 15.4057 75.0543 16.0686 75.0543 17.4857V24H78.4829V16.9828C78.4829 13.8971 76.5172 12.2514 74.2086 12.2514Z" fill="white"/>
<path d="M89.1345 7.99999V13.6457C88.3802 12.7771 87.2602 12.2514 85.7288 12.2514C82.7345 12.2514 80.2659 14.88 80.2659 18.2857C80.2659 21.6914 82.7345 24.32 85.7288 24.32C87.2602 24.32 88.3802 23.7943 89.1345 22.9257V24H92.5631V7.99999H89.1345ZM86.4145 21.0743C84.8374 21.0743 83.6945 20 83.6945 18.2857C83.6945 16.5714 84.8374 15.4971 86.4145 15.4971C87.9917 15.4971 89.1345 16.5714 89.1345 18.2857C89.1345 20 87.9917 21.0743 86.4145 21.0743Z" fill="white"/>
<path d="M96.7927 11.5657C97.9127 11.5657 98.8499 10.6286 98.8499 9.50856C98.8499 8.38856 97.9127 7.45142 96.7927 7.45142C95.6727 7.45142 94.7356 8.38856 94.7356 9.50856C94.7356 10.6286 95.6727 11.5657 96.7927 11.5657ZM95.0784 24H98.507V12.5714H95.0784V24Z" fill="white"/>
<path d="M107.302 10.9714V7.67999C103.507 7.45142 101.747 9.37142 101.747 12.5714H100.216V15.8628H101.747V24H105.176V15.8628H107.302V12.5714H105.176C105.176 11.2457 106.022 10.8571 107.302 10.9714Z" fill="white"/>
<path d="M116.207 12.5714L114.058 19.5657L111.521 12.5714H107.75L112.298 23.4743C111.796 24.8686 111.041 25.3714 109.441 25.3714V28.5714C112.641 28.7314 114.676 27.2914 115.956 23.6571L119.864 12.5714H116.207Z" fill="white"/>
</g>
<defs>
<clipPath id="clip0_8_755">
<rect width="120" height="32" fill="white"/>
</clipPath>
<clipPath id="clip1_8_755">
<rect width="32" height="32" fill="white"/>
</clipPath>
</defs>
</svg>
